<!DOCTYPE svg PUBLIC "-//W3C//DTD SVG 1.1//EN" "http://www.w3.org/Graphics/SVG/1.1/DTD/svg11.dtd">
<svg xmlns="http://www.w3.org/2000/svg" xmlns:xlink="http://www.w3.org/1999/xlink" version="1.1" width="121px" height="121px" viewBox="-0.5 -0.5 121 121"><defs/><g><rect x="0" y="0" width="120" height="120" fill="none" stroke="#a19f9d" pointer-events="none"/><path d="M 25.2 40 Q 40 40 40 60 Q 40 80 60 80 Q 80 80 80 95.2" fill="none" stroke="#a19f9d" stroke-miterlimit="10" pointer-events="none"/><path d="M 95.2 40 Q 80 40 80 60 Q 80 80 60 80 Q 40 80 40 95.2" fill="none" stroke="#a19f9d" stroke-miterlimit="10" pointer-events="none"/><path d="M 80 25.2 Q 50 25.2 40 25.2" fill="none" stroke="#a19f9d" stroke-miterlimit="10" pointer-events="none"/><path d="M 40 95.2 Q 40 95.2 80 95.2" fill="none" stroke="#a19f9d" stroke-miterlimit="10" pointer-events="none"/><path d="M 25.2 80 Q 25.2 80 25.2 40" fill="none" stroke="#a19f9d" stroke-miterlimit="10" pointer-events="none"/><path d="M 25.2 80 Q 40 80 40 60 Q 40 40 60 40 Q 80 40 80 25.2" fill="none" stroke="#a19f9d" stroke-miterlimit="10" pointer-events="none"/><path d="M 95.2 80 Q 95.2 80 95.2 40" fill="none" stroke="#a19f9d" stroke-miterlimit="10" pointer-events="none"/><path d="M 95.2 80 Q 80 80 80 60 Q 80 40 60 40 Q 40 40 40 25.2" fill="none" stroke="#a19f9d" stroke-miterlimit="10" pointer-events="none"/><rect x="10" y="10" width="30" height="30" fill="#107c10" stroke="#107c10" pointer-events="none"/><rect x="80" y="10" width="30" height="30" fill="#107c10" stroke="#107c10" pointer-events="none"/><rect x="10" y="80" width="30" height="30" fill="#107c10" stroke="#107c10" pointer-events="none"/><rect x="80" y="80" width="30" height="30" fill="#e81123" stroke="#e81123" pointer-events="none"/></g></svg>